{
  "accessors": [
    {
      "bufferView": 2,
      "componentType": 5126,
      "count": 65532,
      "max": [
        5.163823127746582,
        8.129674911499023,
        1.3218519687652588
      ],
      "min": [
        -4.917503833770752,
        -5.930616855621338,
        0.39288198947906494
      ],
      "type": "VEC3"
    },
    {
      "bufferView": 2,
      "byteOffset": 786384,
      "componentType": 5126,
      "count": 65532,
      "max": [
        0.6509021520614624,
        0.1938101202249527,
        1.0
      ],
      "min": [
        -0.7232063412666321,
        -0.6060060858726501,
        0.6900060176849365
      ],
      "type": "VEC3"
    },
    {
      "bufferView": 3,
      "componentType": 5126,
      "count": 65532,
      "max": [
        1.0,
        0.005328163504600525,
        0.7235234975814819,
        1.0
      ],
      "min": [
        0.6902997493743896,
        -0.0032035268377512693,
        -0.6511203646659851,
        1.0
      ],
      "type": "VEC4"
    },
    {
      "bufferView": 1,
      "componentType": 5126,
      "count": 65532,
      "max": [
        0.6108700037002563,
        0.9800310134887695
      ],
      "min": [
        0.1298840045928955,
        0.3092060089111328
      ],
      "type": "VEC2"
    },
    {
      "bufferView": 0,
      "componentType": 5125,
      "count": 73170,
      "type": "SCALAR"
    },
    {
      "bufferView": 2,
      "byteOffset": 1572768,
      "componentType": 5126,
      "count": 20441,
      "max": [
        5.15945291519165,
        4.870013236999512,
        1.3356850147247314
      ],
      "min": [
        -4.917622089385986,
        -5.949349880218506,
        0.40322500467300415
      ],
      "type": "VEC3"
    },
    {
      "bufferView": 2,
      "byteOffset": 1818060,
      "componentType": 5126,
      "count": 20441,
      "max": [
        0.5482916235923767,
        0.10010448098182678,
        1.0
      ],
      "min": [
        -0.7868304252624512,
        -0.2512966990470886,
        0.6158628463745117
      ],
      "type": "VEC3"
    },
    {
      "bufferView": 3,
      "byteOffset": 1048512,
      "componentType": 5126,
      "count": 20441,
      "max": [
        1.0,
        0.000978250289335847,
        0.787044882774353,
        1.0
      ],
      "min": [
        0.6168957352638245,
        -0.000982518307864666,
        -0.5482917428016663,
        1.0
      ],
      "type": "VEC4"
    },
    {
      "bufferView": 1,
      "byteOffset": 524256,
      "componentType": 5126,
      "count": 20441,
      "max": [
        0.610660970211029,
        0.8245109915733337
      ],
      "min": [
        0.1298779994249344,
        0.3083130121231079
      ],
      "type": "VEC2"
    },
    {
      "bufferView": 0,
      "byteOffset": 292680,
      "componentType": 5125,
      "count": 20670,
      "type": "SCALAR"
    },
    {
      "bufferView": 2,
      "byteOffset": 2063352,
      "componentType": 5126,
      "count": 226,
      "max": [
        2.4777920246124268,
        5.43453311920166,
        0.40322500467300415
      ],
      "min": [
        -2.227557897567749,
        -5.929498195648193,
        0.06350000202655792
      ],
      "type": "VEC3"
    },
    {
      "bufferView": 2,
      "byteOffset": 2066064,
      "componentType": 5126,
      "count": 226,
      "max": [
        1.0,
        1.0,
        1.0
      ],
      "min": [
        -1.0,
        -1.0,
        0.0
      ],
      "type": "VEC3"
    },
    {
      "bufferView": 3,
      "byteOffset": 1375568,
      "componentType": 5126,
      "count": 226,
      "max": [
        1.0,
        1.0,
        1.0,
        1.0
      ],
      "min": [
        -1.0,
        -1.0,
        -1.0,
        1.0
      ],
      "type": "VEC4"
    },
    {
      "bufferView": 1,
      "byteOffset": 687784,
      "componentType": 5126,
      "count": 226,
      "max": [
        0.9763749837875366,
        0.9856550097465515
      ],
      "min": [
        0.04882799834012985,
        0.023144999518990517
      ],
      "type": "VEC2"
    },
    {
      "bufferView": 0,
      "byteOffset": 375360,
      "componentType": 5125,
      "count": 420,
      "type": "SCALAR"
    }
  ],
  "asset": {
    "extras": {
      "author": "jimbogies (https://sketchfab.com/jimbogies)",
      "license": "CC-BY-4.0 (http://creativecommons.org/licenses/by/4.0/)",
      "source": "https://sketchfab.com/3d-models/sunken-driveway-parking-spot-2cffc511a53641a6a0f46133f85989c6",
      "title": "Sunken Driveway Parking Spot"
    },
    "generator": "Sketchfab-15.0.0",
    "version": "2.0"
  },
  "bufferViews": [
    {
      "buffer": 0,
      "byteLength": 377040,
      "name": "floatBufferViews",
      "target": 34963
    },
    {
      "buffer": 0,
      "byteLength": 689592,
      "byteOffset": 377040,
      "byteStride": 8,
      "name": "floatBufferViews",
      "target": 34962
    },
    {
      "buffer": 0,
      "byteLength": 2068776,
      "byteOffset": 1066632,
      "byteStride": 12,
      "name": "floatBufferViews",
      "target": 34962
    },
    {
      "buffer": 0,
      "byteLength": 1379184,
      "byteOffset": 3135408,
      "byteStride": 16,
      "name": "floatBufferViews",
      "target": 34962
    }
  ],
  "buffers": [
    {
      "byteLength": 4514592,
      "uri": "scene.bin"
    }
  ],
  "images": [
    {
      "uri": "textures/material_baseColor.jpeg"
    },
    {
      "uri": "textures/material_normal.png"
    }
  ],
  "materials": [
    {
      "doubleSided": true,
      "name": "material",
      "normalTexture": {
        "index": 1
      },
      "pbrMetallicRoughness": {
        "baseColorTexture": {
          "index": 0
        },
        "metallicFactor": 0.0
      }
    }
  ],
  "meshes": [
    {
      "name": "Object_0",
      "primitives": [
        {
          "attributes": {
            "NORMAL": 1,
            "POSITION": 0,
            "TANGENT": 2,
            "TEXCOORD_0": 3
          },
          "indices": 4,
          "material": 0,
          "mode": 4
        }
      ]
    },
    {
      "name": "Object_1",
      "primitives": [
        {
          "attributes": {
            "NORMAL": 6,
            "POSITION": 5,
            "TANGENT": 7,
            "TEXCOORD_0": 8
          },
          "indices": 9,
          "material": 0,
          "mode": 4
        }
      ]
    },
    {
      "name": "Object_2",
      "primitives": [
        {
          "attributes": {
            "NORMAL": 11,
            "POSITION": 10,
            "TANGENT": 12,
            "TEXCOORD_0": 13
          },
          "indices": 14,
          "material": 0,
          "mode": 4
        }
      ]
    }
  ],
  "nodes": [
    {
      "children": [
        1
      ],
      "matrix": [
        1.0,
        0.0,
        0.0,
        0.0,
        0.0,
        2.220446049250313e-16,
        -1.0,
        0.0,
        0.0,
        1.0,
        2.220446049250313e-16,
        0.0,
        0.0,
        0.0,
        0.0,
        1.0
      ],
      "name": "Sketchfab_model"
    },
    {
      "children": [
        2,
        3,
        4
      ],
      "name": "Driveway.obj.cleaner.materialmerger.gles"
    },
    {
      "mesh": 0,
      "name": "Object_2"
    },
    {
      "mesh": 1,
      "name": "Object_3"
    },
    {
      "mesh": 2,
      "name": "Object_4"
    }
  ],
  "samplers": [
    {
      "magFilter": 9729,
      "minFilter": 9987,
      "wrapS": 10497,
      "wrapT": 10497
    }
  ],
  "scene": 0,
  "scenes": [
    {
      "name": "Sketchfab_Scene",
      "nodes": [
        0
      ]
    }
  ],
  "textures": [
    {
      "sampler": 0,
      "source": 0
    },
    {
      "sampler": 0,
      "source": 1
    }
  ]
}
